#N canvas 312 69 966 612 10;
#X msg -214 7 \; pd dsp \$1;
#X obj -214 -31 tgl 30 0 empty empty empty 17 7 0 10 -262144 -1 -1
1 1;
#X obj 380 348 bng 40 250 50 0 empty onClear empty 17 7 0 10 -262144
-258113 -1;
#X text -173 -27 Audio On/Off;
#X obj 64 437 tgl 40 0 mic onMic Mic? 9 -10 0 10 -1 -262144 -1 1 1
;
#X obj -214 -79 loadbang;
#X msg -214 -54 1;
#X text -6 -68 Primero Configurar la Interfaz en Preferencias de Audio
;
#N canvas 312 304 420 307 tables 0;
#X obj -125 -998 table \$0-looper;
#X obj -56 -865 f \$0;
#X obj -56 -842 makefilename %d-looper;
#X msg -101 -788 \; \$2 resize \$1;
#X obj -101 -813 pack f s;
#X obj -101 -963 loadbang;
#X obj -101 -892 t f b;
#X msg -101 -924 882000;
#X obj -45 -909 r \$0-length;
#X obj 15 -779 print;
#X obj 134 -866 f \$0;
#X obj 134 -843 makefilename %d-looper;
#X obj 134 -891 r \$0-clear;
#X msg 134 -815 \; \$1 const 0;
#X connect 1 0 2 0;
#X connect 2 0 4 1;
#X connect 4 0 3 0;
#X connect 4 0 9 0;
#X connect 5 0 7 0;
#X connect 6 0 4 0;
#X connect 6 1 1 0;
#X connect 7 0 6 0;
#X connect 8 0 6 0;
#X connect 10 0 11 0;
#X connect 11 0 13 0;
#X connect 12 0 10 0;
#X restore -134 13 pd tables;
#N canvas 773 187 397 559 estimateLoopTime 0;
#X obj 69 13 inlet;
#X obj -47 179 timer;
#X msg 69 101 set -1;
#X obj -49 150 bng 15 250 50 0 empty empty empty 17 7 0 10 -262144
-1 -1;
#X obj 15 148 bng 15 250 50 0 empty empty empty 17 7 0 10 -262144 -1
-1;
#X floatatom -46 343 5 0 0 0 - - -, f 5;
#X obj -46 366 * 44.1;
#X obj 30 284 outlet;
#X obj -46 398 t f f;
#X obj -46 438 -;
#X obj -19 418 % 64;
#X obj -49 119 change -1;
#X obj 15 118 change -1;
#X obj -47 228 < 20000;
#X obj -47 207 t f f;
#X obj -47 251 sel 1;
#X obj -47 281 f;
#X obj -49 81 r \$0-start;
#X obj 14 79 r \$0-stop;
#X obj -46 470 s \$0-length;
#X obj -36 309 s \$0-time;
#X obj 141 55 s \$0-clear;
#X connect 0 0 2 0;
#X connect 0 0 21 0;
#X connect 1 0 14 0;
#X connect 2 0 11 0;
#X connect 2 0 12 0;
#X connect 3 0 1 0;
#X connect 4 0 1 1;
#X connect 5 0 6 0;
#X connect 6 0 8 0;
#X connect 8 0 9 0;
#X connect 8 1 10 0;
#X connect 9 0 19 0;
#X connect 10 0 9 1;
#X connect 11 0 3 0;
#X connect 12 0 4 0;
#X connect 13 0 15 0;
#X connect 14 0 13 0;
#X connect 14 1 16 1;
#X connect 14 1 7 0;
#X connect 15 0 16 0;
#X connect 16 0 5 0;
#X connect 16 0 20 0;
#X connect 17 0 11 0;
#X connect 18 0 12 0;
#X restore 380 406 pd estimateLoopTime;
#X floatatom 380 432 10 0 0 0 - - -, f 10;
#X text 380 326 Clear;
#X obj 139 371 bng 40 250 50 0 onClear empty Clear 6 -10 0 10 -260016
-258113 -1;
#X obj 209 372 tgl 40 0 \$0-start_stop empty start_Stop -10 -10 0 10
-77376 -262144 -1 0 1;
#X obj 139 438 bng 40 250 50 0 save empty Save_to_Disk -10 -10 0 10
-1 -258113 -1;
#X obj 278 374 vsl 15 100 0.01 1 1 0 \$0-gain \$0-volume Vol 0 -9 0
10 -1 -262144 -1 6440 0;
#X obj 209 436 tgl 40 0 \$0-mute muteOnRec Mute 10 -10 0 10 -1 -262144
-1 0 1;
#X obj 380 462 outlet;
#X obj 65 490 hsl 230 15 0 1 0 0 empty \$0-timePoint empty -2 -8 0
10 -229345 -258113 -1 0 1;
#X obj 61 366 tgl 40 0 \$0-reverse empty Reverse 0 -10 0 10 -77376
-262144 -1 0 1;
#X msg 563 99 0;
#X msg 514 96 1;
#X obj 514 70 sel 1;
#X obj 563 71 t b;
#X obj 113 155 +~;
#X obj 113 56 inlet~;
#X obj 171 238 t b;
#X msg 171 259 stop;
#X obj 229 234 f;
#X obj 229 158 t b;
#X msg 229 259 start \$1;
#N canvas 704 278 245 210 Snapshot 0;
#X obj 106 129 snapshot~;
#X obj 106 103 metro 10;
#X obj 106 61 loadbang;
#X msg 106 82 1;
#X obj 57 66 inlet~;
#X obj 106 150 outlet;
#X connect 0 0 5 0;
#X connect 1 0 0 0;
#X connect 2 0 3 0;
#X connect 3 0 1 0;
#X connect 4 0 0 0;
#X restore 244 212 pd Snapshot;
#X obj -78 267 loadbang;
#X obj -197 419 &&;
#X obj -197 442 s muteOnRec;
#X msg -78 295 0.2;
#X obj -182 386 r mic;
#X obj -78 372 s onMic;
#X msg -78 349 1;
#X msg -78 399 0;
#N canvas 77 108 348 391 sampleIndx 0;
#X obj 110 -3221 pow -1;
#X obj 110 -3156 phasor~;
#X obj 110 -3114 *~ 882000;
#X msg 212 -3149 882000;
#X obj 185 -3173 t 0 b;
#X obj 110 -3076 outlet~;
#X obj 62 -3328 change;
#X msg 124 -3345 set -1;
#X obj 110 -3246 / 1000;
#X msg 62 -3295 20000;
#X obj 184 -3273 change;
#X obj 243 -3076 outlet;
#N canvas 704 278 245 210 Snapshot 0;
#X obj 106 129 snapshot~;
#X obj 106 103 metro 10;
#X obj 106 61 loadbang;
#X msg 106 82 1;
#X obj 57 66 inlet~;
#X obj 106 150 outlet;
#X connect 0 0 5 0;
#X connect 1 0 0 0;
#X connect 2 0 3 0;
#X connect 3 0 1 0;
#X connect 4 0 0 0;
#X restore 243 -3099 pd Snapshot;
#X obj 184 -3310 r \$0-stop;
#X obj 62 -3354 r \$0-start;
#X obj 124 -3370 r \$0-clear;
#X obj 185 -3196 r \$0-clear;
#X obj 259 -3131 r \$0-length;
#X obj 110 -3296 r \$0-time;
#X connect 0 0 1 0;
#X connect 1 0 2 0;
#X connect 1 0 12 0;
#X connect 2 0 5 0;
#X connect 3 0 2 1;
#X connect 4 0 1 1;
#X connect 4 0 1 0;
#X connect 4 1 3 0;
#X connect 6 0 9 0;
#X connect 7 0 6 0;
#X connect 7 0 10 0;
#X connect 8 0 0 0;
#X connect 9 0 8 0;
#X connect 10 0 1 1;
#X connect 12 0 11 0;
#X connect 13 0 10 0;
#X connect 14 0 6 0;
#X connect 15 0 7 0;
#X connect 16 0 4 0;
#X connect 17 0 2 1;
#X connect 18 0 8 0;
#X restore 320 35 pd sampleIndx;
#X obj 514 47 r \$0-start_stop;
#X obj -197 365 r \$0-start_stop;
#X obj 514 148 s \$0-start;
#X obj 563 127 s \$0-stop;
#X obj 234 59 s \$0-timePoint;
#X obj 229 138 r \$0-start;
#X obj 171 217 r \$0-stop;
#X obj 128 108 tabread~ \$0-looper;
#X obj 113 276 tabwrite~ \$0-looper;
#X obj -78 422 s \$0-reverse;
#X obj 11 258 outlet~;
#X obj 11 220 *~ 1;
#X obj 11 166 *~ 1;
#X obj 32 199 r \$0-gain;
#X obj 32 85 r \$0-mute;
#X obj -78 321 s \$0-volume;
#X obj 32 106 + 1;
#X obj 32 131 % 2;
#N canvas 427 115 348 391 sampleIndx 0;
#X obj 120 -3211 pow -1;
#X obj 120 -3101 phasor~;
#X obj 120 -3059 *~ 882000;
#X msg 222 -3094 882000;
#X obj 195 -3118 t 0 b;
#X obj 120 -3021 outlet~;
#X obj 72 -3318 change;
#X msg 134 -3335 set -1;
#X obj 120 -3236 / 1000;
#X msg 72 -3285 20000;
#X obj 194 -3263 change;
#X obj 137 -3130 * -1;
#X obj 137 -3152 f;
#X obj 206 -3219 t b f;
#X obj 251 -3218 route 1 0;
#X msg 246 -3186 -1;
#X msg 275 -3185 1;
#X obj 194 -3300 r \$0-stop;
#X obj 134 -3360 r \$0-clear;
#X obj 72 -3344 r \$0-start;
#X obj 195 -3141 r \$0-clear;
#X obj 257 -3076 r \$0-length;
#X obj 207 -3242 r \$0-reverse;
#X obj 120 -3286 r \$0-time;
#X obj 243 -3021 outlet;
#N canvas 704 278 245 210 Snapshot 0;
#X obj 106 129 snapshot~;
#X obj 106 103 metro 10;
#X obj 106 61 loadbang;
#X msg 106 82 1;
#X obj 57 66 inlet~;
#X obj 106 150 outlet;
#X connect 0 0 5 0;
#X connect 1 0 0 0;
#X connect 2 0 3 0;
#X connect 3 0 1 0;
#X connect 4 0 0 0;
#X restore 243 -3044 pd Snapshot;
#X connect 0 0 1 0;
#X connect 0 0 12 1;
#X connect 1 0 2 0;
#X connect 1 0 25 0;
#X connect 2 0 5 0;
#X connect 3 0 2 1;
#X connect 4 0 1 1;
#X connect 4 0 1 0;
#X connect 4 1 3 0;
#X connect 6 0 9 0;
#X connect 7 0 6 0;
#X connect 7 0 10 0;
#X connect 8 0 0 0;
#X connect 9 0 8 0;
#X connect 10 0 1 1;
#X connect 11 0 1 0;
#X connect 12 0 11 0;
#X connect 13 0 12 0;
#X connect 13 1 14 0;
#X connect 14 0 15 0;
#X connect 14 1 16 0;
#X connect 15 0 11 1;
#X connect 16 0 11 1;
#X connect 17 0 10 0;
#X connect 18 0 7 0;
#X connect 19 0 6 0;
#X connect 20 0 4 0;
#X connect 21 0 2 1;
#X connect 22 0 13 0;
#X connect 23 0 8 0;
#X connect 25 0 24 0;
#X restore 159 29 pd sampleIndx;
#X connect 1 0 0 0;
#X connect 2 0 9 0;
#X connect 5 0 6 0;
#X connect 6 0 1 0;
#X connect 9 0 10 0;
#X connect 10 0 17 0;
#X connect 20 0 44 0;
#X connect 21 0 43 0;
#X connect 22 0 21 0;
#X connect 22 1 23 0;
#X connect 23 0 20 0;
#X connect 24 0 49 0;
#X connect 25 0 24 0;
#X connect 26 0 27 0;
#X connect 27 0 49 0;
#X connect 28 0 30 0;
#X connect 29 0 28 0;
#X connect 30 0 49 0;
#X connect 31 0 28 1;
#X connect 32 0 35 0;
#X connect 32 0 38 0;
#X connect 32 0 39 0;
#X connect 33 0 34 0;
#X connect 35 0 56 0;
#X connect 36 0 33 1;
#X connect 38 0 37 0;
#X connect 39 0 50 0;
#X connect 41 0 22 0;
#X connect 42 0 33 0;
#X connect 46 0 29 0;
#X connect 47 0 26 0;
#X connect 48 0 24 1;
#X connect 48 0 53 0;
#X connect 52 0 51 0;
#X connect 53 0 52 0;
#X connect 54 0 52 1;
#X connect 55 0 57 0;
#X connect 57 0 58 0;
#X connect 58 0 53 1;
#X connect 59 0 48 0;
#X connect 59 0 31 0;
#X connect 59 1 45 0;
#X coords 0 -1 1 1 280 180 1 44 330;
